<?xml version="1.0" encoding="UTF-8" standalone="no"?>
<!DOCTYPE svg PUBLIC "-//W3C//DTD SVG 1.1//EN" "http://www.w3.org/Graphics/SVG/1.1/DTD/svg11.dtd">
<svg width="100%" height="100%" viewBox="0 0 400 400" version="1.1" xmlns="http://www.w3.org/2000/svg" xmlns:xlink="http://www.w3.org/1999/xlink" xml:space="preserve" xmlns:serif="http://www.serif.com/" style="fill-rule:evenodd;clip-rule:evenodd;stroke-linejoin:round;stroke-miterlimit:2;">
    <g transform="matrix(1,0,0,1,-68,-516)">
        <path d="M107.431,595.204L108.108,595.175C123.541,594.561 139.194,595.07 154.647,595.071L243.211,595.129L290.536,595.171C299.204,595.179 308.493,594.549 317.079,595.686C322.98,596.468 327.373,598.246 331.737,602.421C339.395,609.745 339.203,618.345 339.311,628.099L339.417,718.257L339.436,745.268C339.436,750.729 339.813,756.758 338.916,762.136C338.036,767.42 335.172,772.663 331.397,776.396C327.87,779.885 322.496,782.614 317.645,783.567C309.508,785.167 297.683,783.966 289.167,783.963L226.883,784.057C226.967,792.877 226.627,801.684 226.703,810.489L267.757,810.56C270.237,810.921 272.673,811.495 274.669,813.105C277.117,815.078 278.478,817.86 278.837,820.953C279.259,824.583 278.396,828.497 276.038,831.351C273.338,834.618 269.326,834.951 265.368,835.265C258.366,835.821 251.044,835.369 244.006,835.361L203.604,835.381L172.004,835.447C166.253,835.472 160.064,835.94 154.364,835.281C151.634,834.966 148.795,833.846 146.748,831.981C144.232,829.688 142.966,826.092 142.975,822.738C142.984,819.347 144.275,815.915 146.772,813.574C148.583,811.876 150.758,811.077 153.178,810.7C157.893,809.964 163.217,810.507 167.992,810.52L196.374,810.543C196.635,801.732 196.499,792.875 196.544,784.058C175.058,783.305 153.283,784.01 131.764,784.013C122.649,784.015 112.589,784.851 103.59,783.395C99.937,782.804 96.418,780.951 93.487,778.722C88.376,774.837 84.807,769.405 84.063,762.974C83.256,755.997 83.835,748.429 83.834,741.386L83.831,699.135L83.846,644.61C83.852,634.702 83.18,624.218 84.35,614.38C84.823,610.392 86.386,607.054 88.979,603.952C93.717,598.283 100.322,595.954 107.431,595.204ZM312.161,760.695C313.509,759.911 315.187,759.188 315.687,757.611C317.038,753.356 316.039,698.73 316.031,689.218C316.014,668.655 316.694,647.932 316.081,627.392C316.017,625.262 315.78,623.287 315.143,621.247C311.688,617.788 303.798,618.851 299.182,618.848L175.84,618.863L135.326,618.852C127.042,618.854 118.595,618.587 110.332,619.125C108.091,620.903 107.614,622.361 107.261,625.176C106.484,631.384 106.903,637.99 106.9,644.257L106.922,678.059L106.92,727.414C106.915,735.759 106.581,744.254 106.978,752.585C107.086,754.851 107.339,757.014 108.248,759.113C110.056,760.427 111.569,760.794 113.797,760.91C128.721,761.688 144.004,761.045 158.966,761.046L246.085,761.037L291.191,761.025C297.665,761.022 305.334,761.821 311.635,760.806C311.812,760.778 311.986,760.732 312.161,760.695Z" style="fill:rgb(254,178,0);fill-rule:nonzero;"/>
    </g>
    <g transform="matrix(1,0,0,1,-68,-516)">
        <path d="M365.792,596.152C374.79,595.733 438.821,595.049 443.978,597.062C447.363,598.383 449.998,601.34 451.316,604.678C451.991,606.389 452.195,608.19 452.265,610.016C452.709,621.625 452.369,633.355 452.368,644.978L452.315,712.606L452.315,785.365C452.322,797.174 452.709,809.07 452.355,820.869C452.283,823.278 452.349,826.276 451.271,828.462C449.269,832.521 445.475,834.668 441.294,835.932C428.509,836.581 415.492,836.067 402.673,836.069C392.118,836.071 381.265,836.656 370.764,835.924C368.617,835.788 366.493,835.403 364.435,834.776C361.409,833.828 359.286,832.294 357.928,829.345C356.757,826.803 356.654,824.042 356.569,821.29C356.124,806.986 356.537,792.513 356.637,778.196L356.797,715.326L356.719,636.053C356.746,627.659 356.313,619.173 356.562,610.798C356.643,608.062 356.936,605.132 358.02,602.597C359.492,599.156 362.527,597.58 365.792,596.152ZM426.062,648.462C427.942,647.223 429.433,646.312 429.992,643.988C430.525,641.77 430.067,639.258 428.855,637.332C427.916,635.839 426.753,635.375 425.082,635.124C419.816,634.332 413.956,634.793 408.625,634.799C399.874,634.809 391.075,634.637 382.336,635.149C380.55,636.553 379.032,638.115 378.684,640.467C378.416,642.285 379.063,644.428 380.176,645.872C381.762,647.933 383.913,648.26 386.361,648.485C391.781,648.981 397.443,648.628 402.895,648.608C410.597,648.58 418.369,648.746 426.062,648.462ZM423.966,684.185C425.771,683.949 427.095,683.832 428.287,682.276C429.544,680.635 430.873,678.144 430.394,676.01C429.981,674.168 428.479,672.886 426.861,672.086C421.011,669.195 393.123,670.362 385.23,670.783C382.922,671.259 381.114,671.653 379.71,673.725C378.605,675.356 378.252,677.646 378.662,679.559C378.991,681.096 379.707,682.346 381.101,683.162C384.868,685.368 417.254,684.07 423.966,684.185ZM407.618,795.519C414.473,793.791 418.653,786.859 416.981,779.99C415.31,773.121 408.413,768.884 401.53,770.499C394.567,772.132 390.27,779.128 391.961,786.078C393.652,793.028 400.683,797.267 407.618,795.519Z" style="fill:rgb(254,178,0);fill-rule:nonzero;"/>
    </g>
</svg>
