<?xml version="1.0" encoding="utf-8" ?>
<svg xmlns="http://www.w3.org/2000/svg" xmlns:xlink="http://www.w3.org/1999/xlink" width="1024" height="1024">
	<path fill="#FED200" d="M392.993 354.742C393.136 354.736 393.28 354.729 393.424 354.726C412.235 354.359 431.116 354.646 449.934 354.647L560.068 354.732L614.696 354.764C623.888 354.773 633.919 353.993 643.008 355.176C646.716 355.658 649.77 357.281 652.405 359.932C655.182 362.726 656.002 366.651 656.371 370.456C657.072 377.701 656.57 385.448 656.561 392.742L656.529 433.649C656.503 470.967 657.292 508.433 656.51 545.732C656.435 549.311 656.235 553.259 654.523 556.475C650.072 564.833 623.491 581.715 614.997 590.212C613.122 592.088 611.416 594.119 610.431 596.611C607.556 603.883 608.933 617.031 608.976 624.909C609.071 631.244 609.392 637.979 605.055 643.149C601.585 647.287 595.811 648.494 590.642 648.878C580.948 649.598 570.88 649.049 561.134 649.035L505.19 648.975L456.712 649.032C448.474 649.039 439.884 649.603 431.701 648.792C427.443 648.37 423.606 647.513 420.367 644.55C411.824 636.732 415.383 616.836 415.084 605.913C414.978 602.02 414.531 598.126 412.468 594.724C406.807 585.392 383.533 571.098 374.612 562.643C368.973 557.299 368.155 552.35 367.97 544.965C367.644 531.926 367.919 518.812 367.918 505.767L367.877 433.457L367.83 392.099C367.825 384.871 367.341 377.214 368.073 370.037C368.501 365.84 369.118 362.37 372.258 359.262C377.574 354 386.095 354.796 392.993 354.742Z"/>
	<defs>
		<linearGradient id="gradient_0" gradientUnits="userSpaceOnUse" x1="499.98602" y1="376.73868" x2="531.96216" y2="610.98761">
			<stop offset="0" stop-color="#F05600"/>
			<stop offset="1" stop-color="#FFCB00"/>
		</linearGradient>
	</defs>
	<path fill="url(#gradient_0)" d="M525.465 388.94C536.992 388.844 548.519 388.859 560.046 388.987L560.061 437.204C560.053 444.98 559.633 453.018 560.191 460.768C560.355 463.039 560.617 466.172 561.893 468.07C562.533 469.023 564.199 469.312 565.263 469.439C569.143 469.906 584.276 470.222 587.024 467.839C588.432 466.618 588.624 463.571 588.792 461.832C589.579 453.657 589.006 445.017 589.005 436.785L588.998 388.984C594.121 388.913 599.252 388.947 604.375 388.931C608.764 388.876 619.093 387.638 622.328 391.134C623.71 392.628 623.823 396.614 623.937 398.657C624.402 407.021 624.035 415.577 624.034 423.963L624.021 471.529L623.961 513.129C623.943 519.168 624.394 525.491 623.953 531.49C623.789 533.721 623.374 535.536 621.961 537.318C618.228 542.028 612.391 545.767 607.718 549.591C600.614 555.405 593.508 561.316 586.652 567.421C571.908 580.55 577.576 581.675 576.151 598.449C575.947 600.851 575.15 604.282 572.906 605.647C570.997 606.809 567.861 606.98 565.667 607.053C542.651 607.822 519.363 607.014 496.31 607.105L469.358 607.219C464.298 607.237 458.563 607.732 453.584 606.817C443.383 604.943 450.806 583.667 445.217 575.435C439.108 566.439 421.976 553.459 413.1 546.102C409.486 543.107 403.372 539.08 401.194 534.896C400.053 532.705 400.127 528.324 400.061 525.834C399.256 495.732 399.998 465.41 400.004 435.286C400.006 427.363 399.048 400.19 400.49 394.092C401.103 391.502 402.736 390.404 404.891 389.061C415.182 388.475 425.688 388.929 435.999 388.976C435.756 403.439 435.958 417.939 435.953 432.405C435.95 441.048 434.695 459.509 436.994 467.005C438.194 468.487 439.533 469.078 441.394 469.369C445.812 470.06 458.108 470.086 461.623 467.675C462.891 465.982 463.064 463.699 463.255 461.641C464.03 453.29 463.498 444.488 463.499 436.094L463.413 388.993C475.124 388.863 486.837 388.878 498.549 389.038L498.501 435.06C498.493 443.634 497.981 452.57 498.62 461.11C498.772 463.144 498.933 465.98 500.111 467.68C500.934 468.867 503.188 469.273 504.52 469.408C508.546 469.819 520.861 470.341 523.609 467.666C524.666 466.637 524.931 465.564 525.128 464.158C526.279 455.923 525.528 446.852 525.523 438.499L525.465 388.94Z"/>
	<defs>
		<linearGradient id="gradient_1" gradientUnits="userSpaceOnUse" x1="77.814224" y1="493.04105" x2="346.0799" y2="541.20697">
			<stop offset="0" stop-color="#FE8100"/>
			<stop offset="1" stop-color="#FFA300"/>
		</linearGradient>
	</defs>
	<path fill="url(#gradient_1)" d="M256.02 468.522C274.551 465.28 292.956 461.151 311.397 457.433C321.609 455.374 332.22 453.991 342.299 451.44L342.399 507.88C342.395 517.215 342.968 526.91 342.302 536.195C342.371 547.754 342.797 559.474 342.228 571.013C329.33 567.583 316.02 565.374 302.957 562.62C287.203 559.299 271.442 555.505 255.611 552.603C252.285 550.696 218.988 544.445 214.758 544.42C207.277 543.411 199.729 541.44 192.328 539.915L148.899 530.966L100.249 520.858C92.5746 519.226 82.6018 518.23 75.6091 514.749C74.6068 513.514 73.9393 512.369 73.2607 510.933L73.4654 509.418C73.8507 508.602 74.2177 507.771 74.7803 507.057C75.8891 505.649 77.2729 505.035 78.947 504.55C85.4498 502.667 92.3746 501.646 99.0173 500.33L129.98 494.023C149.018 489.981 168.091 486.104 187.196 482.391C196.363 480.565 205.553 478.388 214.782 476.927C228.506 474.017 242.252 471.215 256.02 468.522Z"/>
	<path fill="#FEB000" d="M256.02 468.522C274.551 465.28 292.956 461.151 311.397 457.433C321.609 455.374 332.22 453.991 342.299 451.44L342.399 507.88C342.395 517.215 342.968 526.91 342.302 536.195C341.117 540.155 341.706 545.474 341.676 549.632L341.255 511.373C332.824 510.235 324.154 510.552 315.658 510.543L279.832 510.527L144.337 510.459L99.6142 510.464C92.0345 510.466 84.2648 510.795 76.7029 510.377C75.3222 510.301 74.5996 510.199 73.4654 509.418C73.8507 508.602 74.2177 507.771 74.7803 507.057C75.8891 505.649 77.2729 505.035 78.947 504.55C85.4498 502.667 92.3746 501.646 99.0173 500.33L129.98 494.023C149.018 489.981 168.091 486.104 187.196 482.391C196.363 480.565 205.553 478.388 214.782 476.927C228.506 474.017 242.252 471.215 256.02 468.522Z"/>
	<path fill="#FC8100" d="M512.203 669.449L569.242 669.46C566.081 689.59 561.832 709.609 558.147 729.654C556.133 740.612 554.184 756.462 550.99 766.794C549.035 775.648 547.225 784.534 545.561 793.447C544.694 797.902 543.188 803.141 543.168 807.655C542.452 815.836 540.428 824.13 538.924 832.22L530.818 876.001L522.119 922.475C520.707 929.886 519.742 937.827 517.62 945.036C517.097 946.81 516.026 947.917 514.756 949.216C513.653 949.436 512.553 949.635 511.478 949.971C509.483 949.106 508.542 948.389 507.172 946.716C504.171 938.207 502.538 923.83 500.78 914.582L486.655 840.276C484.654 829.758 483.544 818.556 480.701 808.27C479.507 807.272 477.312 807.282 475.78 807.094C476.7 806.903 477.569 806.756 478.508 806.724L479.355 806.7L479.186 806.476L480.208 806.654C480.698 803.91 474.097 771.258 473.079 766.342C472.414 756.979 469.604 747.002 467.784 737.777C463.319 715.142 458.238 692.266 454.737 669.474L512.203 669.449Z"/>
	<defs>
		<linearGradient id="gradient_2" gradientUnits="userSpaceOnUse" x1="455.43665" y1="839.38672" x2="613.3927" y2="756.3996">
			<stop offset="0" stop-color="#FFA100"/>
			<stop offset="1" stop-color="#FFBD01"/>
		</linearGradient>
	</defs>
	<path fill="url(#gradient_2)" d="M512.203 669.449L569.242 669.46C566.081 689.59 561.832 709.609 558.147 729.654C556.133 740.612 554.184 756.462 550.99 766.794C549.035 775.648 547.225 784.534 545.561 793.447C544.694 797.902 543.188 803.141 543.168 807.655C542.452 815.836 540.428 824.13 538.924 832.22L530.818 876.001L522.119 922.475C520.707 929.886 519.742 937.827 517.62 945.036C517.097 946.81 516.026 947.917 514.756 949.216C513.653 949.436 512.553 949.635 511.478 949.971C513.181 942.455 512.365 928.204 512.392 920.042L512.454 859.853L512.436 735.503C512.426 713.555 513.114 691.364 512.203 669.449Z"/>
	<path fill="#FEB000" d="M682.095 451.784C692.268 452.454 709.148 456.907 719.751 459.081C735.577 462.326 751.972 464.789 767.566 468.915C781.174 472.122 794.984 474.299 808.598 477.495C836.794 482.561 864.84 488.994 892.931 494.637C903.487 496.607 913.982 498.858 924.528 500.877C931.469 502.205 938.983 503.057 945.68 505.249C947.176 505.738 948.179 506.252 949.066 507.608C949.644 508.505 950.125 509.461 950.501 510.459C949.74 512.553 949.238 514.163 947.135 515.25C941.609 518.105 925.138 520.546 918.17 522.011L840.697 538.492C834.018 539.954 827.328 541.363 820.627 542.719C816.893 543.479 812.732 543.985 809.137 545.184C801.484 545.436 793.271 547.779 785.785 549.322C779.78 550.56 773.464 551.496 767.574 553.169C759.337 555.835 748.758 557.225 740.133 559.047C720.821 563.265 701.454 567.226 682.037 570.929C681.644 550.984 682.099 530.989 681.948 511.034L682.095 451.784Z"/>
	<path fill="#FED200" d="M682.095 451.784C692.268 452.454 709.148 456.907 719.751 459.081C735.577 462.326 751.972 464.789 767.566 468.915C781.174 472.122 794.984 474.299 808.598 477.495C836.794 482.561 864.84 488.994 892.931 494.637C903.487 496.607 913.982 498.858 924.528 500.877C931.469 502.205 938.983 503.057 945.68 505.249C947.176 505.738 948.179 506.252 949.066 507.608C949.644 508.505 950.125 509.461 950.501 510.459L766.634 510.542L715.296 510.53C704.231 510.516 692.975 510.088 681.948 511.034L682.095 451.784Z"/>
	<defs>
		<linearGradient id="gradient_3" gradientUnits="userSpaceOnUse" x1="474.93665" y1="194.86969" x2="585.03967" y2="210.3564">
			<stop offset="0" stop-color="#FFA400"/>
			<stop offset="1" stop-color="#FFD901"/>
		</linearGradient>
	</defs>
	<path fill="url(#gradient_3)" d="M478.87 209.686L497.436 111.122C499.081 102.481 500.855 93.8517 502.366 85.1877C503.378 79.3815 503.972 73.2191 505.608 67.5767C506.302 65.1847 507.436 61.8644 509.599 60.3682C510.65 59.6408 511.587 59.299 512.867 59.6373C514.329 60.0238 516.189 61.4317 516.882 62.7717C519.996 68.7935 521.83 85.2887 523.353 92.8964L545.698 209.788C546.414 217.421 551.346 247.071 553.652 252.901C555.58 265.923 558.752 278.987 561.319 291.909C564.014 305.481 566.193 319.435 569.712 332.81C561.875 332.309 553.924 332.589 546.069 332.596L506.997 332.598L474.878 332.585C468.175 332.585 461.292 332.274 454.624 332.976C456.765 324.39 458.134 315.426 459.81 306.731C463.232 288.662 466.788 270.619 470.476 252.602C472.215 249.402 478.056 215.493 478.87 209.686Z"/>
	<defs>
		<linearGradient id="gradient_4" gradientUnits="userSpaceOnUse" x1="367.40579" y1="365.97018" x2="302.40305" y2="293.68417">
			<stop offset="0" stop-color="#FE8D00"/>
			<stop offset="1" stop-color="#FFA600"/>
		</linearGradient>
	</defs>
	<path fill="url(#gradient_4)" d="M214.782 476.927C216.619 467.383 217.393 457.597 219.262 448.02C225.84 412.56 239.046 378.659 258.189 348.093C296.065 287.327 354.869 242.523 423.508 222.133C434.929 218.611 446.535 215.723 458.274 213.48C464.924 212.174 471.756 211.41 478.336 209.819L478.87 209.686C478.056 215.493 472.215 249.402 470.476 252.602C400.651 265.558 338.657 302.347 298.203 361.358C281.028 386.455 268.448 414.404 261.049 443.901C259.017 452.05 257.632 460.29 256.02 468.522C242.252 471.215 228.506 474.017 214.782 476.927Z"/>
	<defs>
		<linearGradient id="gradient_5" gradientUnits="userSpaceOnUse" x1="613.13873" y1="374.172" x2="747.47266" y2="309.65262">
			<stop offset="0" stop-color="#FF9F00"/>
			<stop offset="1" stop-color="#FFD101"/>
		</linearGradient>
	</defs>
	<path fill="url(#gradient_5)" d="M545.698 209.788C631.387 222.968 702.217 260.84 754.007 331.412C774.794 359.739 789.268 391.894 799.291 425.423C802.92 439.519 808.806 463.187 808.598 477.495C794.984 474.299 781.174 472.122 767.566 468.915C768.393 466.557 766.918 461.921 766.401 459.381C762.696 440.553 757.014 422.168 749.45 404.533C722.305 341.544 670.989 292.105 607.033 267.326C599.426 264.346 558.811 250.648 553.652 252.901C551.346 247.071 546.414 217.421 545.698 209.788Z"/>
	<defs>
		<linearGradient id="gradient_6" gradientUnits="userSpaceOnUse" x1="378.03815" y1="609.36011" x2="314.82034" y2="747.92993">
			<stop offset="0" stop-color="#F57600"/>
			<stop offset="1" stop-color="#FF9C00"/>
		</linearGradient>
	</defs>
	<path fill="url(#gradient_6)" d="M214.758 544.42C218.988 544.445 252.285 550.696 255.611 552.603C268.196 620.762 305.333 682.215 362.819 721.711C397.348 745.434 432.129 758.495 473.079 766.342C474.097 771.258 480.698 803.91 480.208 806.654L479.186 806.476L479.355 806.7L478.508 806.724C477.569 806.756 476.7 806.903 475.78 807.094C466.436 806.519 456.726 804.392 447.591 802.37C400.916 792.053 357.423 770.619 320.808 739.89C263.557 692.056 221.576 619.32 214.758 544.42Z"/>
	<defs>
		<linearGradient id="gradient_7" gradientUnits="userSpaceOnUse" x1="657.23254" y1="655.8739" x2="719.78363" y2="723.85895">
			<stop offset="0" stop-color="#FF9700"/>
			<stop offset="1" stop-color="#FFC901"/>
		</linearGradient>
	</defs>
	<path fill="url(#gradient_7)" d="M767.574 553.169C773.464 551.496 779.78 550.56 785.785 549.322C793.271 547.779 801.484 545.436 809.137 545.184C806.293 562.464 803.221 579.569 798.243 596.389C778.997 661.42 739.175 715.472 684.286 754.905C650.31 779.111 611.501 795.686 570.521 803.494C561.407 805.303 552.302 806.175 543.168 807.655C543.188 803.141 544.694 797.902 545.561 793.447C547.225 784.534 549.035 775.648 550.99 766.794C599.401 757.14 641.863 739.701 680.137 707.883C718.448 676.034 745.981 632.123 760.342 584.612C763.379 574.564 766.61 563.64 767.574 553.169Z"/>
</svg>
