<?xml version="1.0" encoding="UTF-8" standalone="no"?>
<!DOCTYPE svg PUBLIC "-//W3C//DTD SVG 1.1//EN" "http://www.w3.org/Graphics/SVG/1.1/DTD/svg11.dtd">
<svg width="100%" height="100%" viewBox="0 0 1024 256" version="1.1" xmlns="http://www.w3.org/2000/svg" xmlns:xlink="http://www.w3.org/1999/xlink" xml:space="preserve" xmlns:serif="http://www.serif.com/" style="fill-rule:evenodd;clip-rule:evenodd;stroke-linejoin:round;stroke-miterlimit:2;">
    <g transform="matrix(1,0,0,1,0,-354)">
        <path d="M190.484,398.748L221.454,398.8C240.946,398.824 258.192,398.868 273.106,413.328C284.222,424.106 288.734,438.598 288.859,453.827C288.986,469.376 284.662,484.437 273.43,495.612C257.841,511.121 237.777,510.966 217.25,510.884C211.515,510.857 202.794,507.392 200.93,512.816C198.055,521.183 200.013,544.364 200,561.088L168.466,561.098L168.382,454.141C168.383,435.874 165.716,414.733 169.4,405.5C172.155,398.596 183.054,398.791 190.484,398.748ZM226.987,410.758C208.216,410.758 192.977,429.967 192.977,453.628C192.977,477.288 208.216,496.497 226.987,496.497C245.758,496.497 260.997,477.288 260.997,453.628C260.997,429.967 245.758,410.758 226.987,410.758Z" style="fill:url(#_Linear1);fill-rule:nonzero;"/>
    </g>
    <g transform="matrix(1,0,0,1,0,-354)">
        <path d="M338.122,443.17C343.115,442.592 348.732,442.976 353.655,444.018C363.212,446.04 370.081,451.205 375.346,459.321C376.75,456.993 378.344,454.895 380.288,452.997C387.759,445.707 398.013,442.844 408.263,442.97C418.144,443.091 428.262,445.604 435.313,452.934C439.628,457.42 442.641,463.427 443.947,469.495C446.621,481.922 445.248,496.498 445.213,509.185C445.291,526.47 445.271,543.755 445.151,561.039L417.027,561.14C416.772,543.466 417.002,525.758 417.007,508.081C417.01,499.787 417.858,490.58 416.435,482.427C415.878,479.235 414.696,476.153 412.396,473.801C409.641,470.985 405.702,469.964 401.846,469.993C398.304,470.019 395.069,471.203 392.572,473.76C390.131,476.258 388.77,479.54 388.06,482.914C386.328,491.146 387.435,512.285 387.464,521.875L387.457,561.125C377.977,561.064 367.915,560.419 358.507,561.408L358.54,510.972C358.548,501.997 359.363,492.085 357.938,483.238C357.411,479.962 356.492,477.122 354.239,474.612C351.662,471.741 347.838,470.114 343.995,470.065C340.406,469.99 336.938,471.359 334.366,473.863C332.281,475.918 331.021,478.463 330.523,481.335C329.048,489.84 329.952,499.56 329.955,508.207L329.979,561.001C320.331,561.228 310.652,561.14 301,561.179L300.976,508.277C300.95,497.383 299.914,485.409 301.922,474.723C303.093,468.495 305.552,462.56 309.409,457.508C316.622,448.062 326.759,444.715 338.122,443.17Z" style="fill:url(#_Linear2);fill-rule:nonzero;"/>
    </g>
    <g transform="matrix(1,0,0,1,0,-354)">
        <path d="M816.846,443.181C829.915,441.425 845.307,445.282 856.109,452.754C868.292,461.181 875.636,474.797 878.166,489.209C881.274,506.913 878.531,526.856 868.036,541.738C858.809,554.824 846.089,561.248 830.585,563.923C815.539,565.258 800.528,563.117 788.218,553.774C776.283,544.716 769.571,530.522 767.572,515.909C765.103,497.861 767.778,477.667 779.145,462.893C788.563,450.651 801.872,445.042 816.846,443.181ZM827.07,538.681C834.656,537.18 840.541,534.154 844.955,527.52C848.269,522.54 850.167,516.486 850.892,510.275C851.544,504.691 851.248,498.981 850.181,493.812C849.47,490.363 848.331,486.994 846.718,483.897C844.521,479.68 841.445,475.968 837.372,473.253C832.093,469.735 825.946,468.742 819.728,469.157C812.7,470.103 806.841,472.801 802.372,478.516C795.327,487.524 793.849,501.321 795.46,512.305C796.656,520.468 799.82,528.814 806.574,533.975C812.49,538.495 819.843,539.663 827.07,538.681Z" style="fill:url(#_Linear3);fill-rule:nonzero;"/>
    </g>
    <g transform="matrix(1,0,0,1,0,-354)">
        <path d="M504.854,443.162C510.472,442.626 516.739,442.76 522.315,443.556C534.511,445.298 545.362,451.4 552.668,461.377C563.223,475.792 564.721,495.901 561.973,513.037C537.024,513.504 512.017,513.002 487.057,513.155C487.738,518.003 488.623,522.539 491.074,526.849C494.435,532.758 500.032,536.82 506.542,538.63C521.861,542.889 539.247,538.137 552.725,530.644C555.081,537.784 557.338,544.956 559.495,552.159C551.872,557.67 543.738,561.096 534.496,562.849C516.574,566.248 496.425,564.91 481.024,554.313C469.577,546.437 462.784,533.733 460.282,520.268C456.787,501.455 458.751,479.561 469.949,463.52C478.387,451.432 490.662,445.587 504.854,443.162ZM487.028,492.574L517.39,492.623L537.287,492.522C536.099,484.585 534.386,476.371 527.468,471.317C521.706,467.106 514.823,466.792 507.997,467.135C501.417,468.503 496.212,470.819 492.287,476.579C489.044,481.336 487.831,486.971 487.028,492.574Z" style="fill:url(#_Linear4);fill-rule:nonzero;"/>
    </g>
    <g transform="matrix(1,0,0,1,0,-354)">
        <path d="M634.861,443.164C636.597,442.949 638.409,443.015 640.156,443.041C649.977,443.187 659.584,445.729 666.546,453.033C671.009,457.715 673.718,463.659 675.036,469.946C677.49,481.646 676.182,494.906 676.182,506.834C676.293,524.995 676.268,543.157 676.107,561.318C666.791,560.798 657.368,561.084 648.037,561.096L648.088,512.847C648.092,504.192 648.79,494.986 647.549,486.438C647.024,482.818 646.084,479.145 643.748,476.245C640.768,472.546 636.105,470.547 631.446,470.14C624.515,469.536 618.152,471.197 612.783,475.71C610.783,477.956 609.055,480.54 608.355,483.505C606.203,492.606 607.363,503.612 607.37,513.009L607.432,561.053L578.332,561.099C578.72,547.776 578.412,534.355 578.42,521.022L578.483,444.545L607.128,444.534C607.367,449.443 607.163,454.361 607.038,459.272L608.407,457.443C615.231,448.479 623.925,444.673 634.861,443.164Z" style="fill:url(#_Linear5);fill-rule:nonzero;"/>
    </g>
    <g transform="matrix(1,0,0,1,0,-354)">
        <path d="M702.474,413.604C711.926,413.173 721.521,413.369 730.982,413.458C731.121,423.826 731.018,434.207 731.018,444.577L759.99,444.539C760.109,453.183 760.041,461.838 760.053,470.484C750.385,470.38 740.703,470.472 731.034,470.467C731.028,481.561 729.793,521.188 732.17,529.064C733.29,532.773 735.489,536.045 739.023,537.808C745.498,541.04 754.886,538.836 761.408,536.713L761.388,552.37L761.507,560.669C755.175,563.055 747.798,564.229 741.045,564.359C730.916,564.555 719.755,562.289 712.381,554.84C707.94,550.353 705.271,544.38 703.874,538.287C701.675,528.694 702.454,518.12 702.458,508.319L702.49,470.39L684.035,470.577L684.053,444.574L702.473,444.543L702.474,413.604Z" style="fill:url(#_Linear6);fill-rule:nonzero;"/>
    </g>
    <g transform="matrix(1,0,0,1,0,-354)">
        <path d="M130.303,398.745C134.671,398.804 139.039,398.784 143.407,398.686C144.07,452.776 143.509,506.946 143.521,561.044C132.836,561.215 121.167,559.992 110.646,561.495L110.582,552.625L110.578,435.019C102.423,435.001 94.269,435.04 86.115,435.138C86.34,428.965 86.161,422.734 86.136,416.555C93.922,410.887 101.127,404.418 109.016,398.903C116.088,398.613 123.225,398.761 130.303,398.745Z" style="fill:rgb(254,202,0);fill-rule:nonzero;"/>
    </g>
    <g transform="matrix(1,0,0,1,0,-354)">
        <path d="M933.279,444.197C939.088,443.496 945.502,444.134 951.343,444.451C951.687,453.247 951.36,462.154 951.232,470.959C947.916,470.582 944.587,470.336 941.252,470.219C935.329,470.069 929.118,471.368 924.773,475.66C921.731,478.665 920.375,483.499 919.708,487.629C918.29,496.404 919.018,506 919.03,514.9L919.156,561.04L909.875,561.086L889.987,561.124L889.996,513.559C889.985,501.746 888.916,488.889 891.485,477.306C892.996,470.495 895.885,464.312 900.398,458.972C909.22,448.533 920.095,445.372 933.279,444.197Z" style="fill:url(#_Linear7);fill-rule:nonzero;"/>
    </g>
    <defs>
        <linearGradient id="_Linear1" x1="0" y1="0" x2="1" y2="0" gradientUnits="userSpaceOnUse" gradientTransform="matrix(-20.7967,-161.62,161.62,-20.7967,234.924,555.313)"><stop offset="0" style="stop-color:rgb(255,186,1);stop-opacity:1"/><stop offset="1" style="stop-color:rgb(255,212,0);stop-opacity:1"/></linearGradient>
        <linearGradient id="_Linear2" x1="0" y1="0" x2="1" y2="0" gradientUnits="userSpaceOnUse" gradientTransform="matrix(34.8177,135.169,-135.169,34.8177,353.008,439.301)"><stop offset="0" style="stop-color:rgb(255,201,0);stop-opacity:1"/><stop offset="1" style="stop-color:rgb(255,162,4);stop-opacity:1"/></linearGradient>
        <linearGradient id="_Linear3" x1="0" y1="0" x2="1" y2="0" gradientUnits="userSpaceOnUse" gradientTransform="matrix(18.6538,118.318,-118.318,18.6538,813.474,444.162)"><stop offset="0" style="stop-color:rgb(255,183,0);stop-opacity:1"/><stop offset="1" style="stop-color:rgb(255,143,12);stop-opacity:1"/></linearGradient>
        <linearGradient id="_Linear4" x1="0" y1="0" x2="1" y2="0" gradientUnits="userSpaceOnUse" gradientTransform="matrix(20.455,119.49,-119.49,20.455,501.013,444.412)"><stop offset="0" style="stop-color:rgb(255,190,0);stop-opacity:1"/><stop offset="1" style="stop-color:rgb(255,154,7);stop-opacity:1"/></linearGradient>
        <linearGradient id="_Linear5" x1="0" y1="0" x2="1" y2="0" gradientUnits="userSpaceOnUse" gradientTransform="matrix(9.83503,121.438,-121.438,9.83503,620.817,442.154)"><stop offset="0" style="stop-color:rgb(255,189,0);stop-opacity:1"/><stop offset="1" style="stop-color:rgb(255,153,8);stop-opacity:1"/></linearGradient>
        <linearGradient id="_Linear6" x1="0" y1="0" x2="1" y2="0" gradientUnits="userSpaceOnUse" gradientTransform="matrix(28.1575,151.286,-151.286,28.1575,713.555,412.628)"><stop offset="0" style="stop-color:rgb(255,197,0);stop-opacity:1"/><stop offset="1" style="stop-color:rgb(255,148,10);stop-opacity:1"/></linearGradient>
        <linearGradient id="_Linear7" x1="0" y1="0" x2="1" y2="0" gradientUnits="userSpaceOnUse" gradientTransform="matrix(48.6558,85.5143,-85.5143,48.6558,895.948,459.349)"><stop offset="0" style="stop-color:rgb(255,177,2);stop-opacity:1"/><stop offset="1" style="stop-color:rgb(255,143,13);stop-opacity:1"/></linearGradient>
    </defs>
</svg>
