<?xml version="1.0" encoding="UTF-8" standalone="no"?>
<!DOCTYPE svg PUBLIC "-//W3C//DTD SVG 1.1//EN" "http://www.w3.org/Graphics/SVG/1.1/DTD/svg11.dtd">
<svg width="100%" height="100%" viewBox="0 0 400 400" version="1.1" xmlns="http://www.w3.org/2000/svg" xmlns:xlink="http://www.w3.org/1999/xlink" xml:space="preserve" xmlns:serif="http://www.serif.com/" style="fill-rule:evenodd;clip-rule:evenodd;stroke-linejoin:round;stroke-miterlimit:2;">
    <g transform="matrix(1,0,0,1,-68,-128)">
        <path d="M148.769,202.107C150.321,201.975 151.873,201.896 153.431,201.996C156.111,202.168 158.846,203.232 160.6,205.327C162.25,207.296 162.551,209.488 162.795,211.974C163.991,224.161 163.012,240.454 163.014,253.137C163.016,271.094 164.091,290.097 162.447,307.931C173.402,308.957 184.94,308.274 195.968,308.275L259.025,308.268L333.294,308.294C346.394,308.288 359.952,308.934 372.994,308.008L373.043,240.277C373.067,231.173 372.164,220.627 373.014,211.746C373.192,209.88 373.48,208.079 374.629,206.543C376.628,203.868 379.094,202.278 382.447,201.973C385.859,201.662 389.091,202.548 391.632,204.903C393.343,206.488 394.194,208.355 394.565,210.627C395.986,219.341 394.926,230.411 394.888,239.346L394.9,291.562C394.899,297.049 394.487,302.54 394.589,308.013C403.948,308.608 413.559,307.317 422.846,308.704C432.079,310.035 440.381,315.048 445.857,322.6C448.498,326.2 450.57,330.369 451.457,334.757C452.996,342.38 453.248,390.086 451.909,398.41C450.367,407.998 443.941,416.063 436.287,421.616C424.088,429.719 407.504,427.526 393.562,427.463C393.74,433.757 395.336,444.569 390.747,449.418C388.095,452.22 384.119,453.577 380.319,453.615C376.513,453.652 372.416,452.322 369.75,449.513C364.918,444.422 366.43,433.948 366.551,427.44L169.128,427.463C169.144,427.62 169.163,427.776 169.176,427.932C169.71,434.159 170.812,444.442 166.448,449.37C163.892,452.255 159.915,453.568 156.144,453.654C152.244,453.743 148.2,452.422 145.407,449.632C140.374,444.606 141.904,434.105 141.959,427.467C126.376,426.242 110.448,430.634 97.108,419.866C89.234,413.51 85.047,404.618 84.112,394.652C83.338,386.416 83.944,377.78 83.932,369.496C83.916,359.21 82.589,344.217 84.807,334.431C85.975,329.322 88.356,324.569 91.751,320.576C105.785,303.763 122.263,309.854 140.894,308.031C141.106,308.01 141.318,307.985 141.53,307.961C141.351,285.012 141.311,262.061 141.408,239.111C141.408,232.309 140.195,214.503 141.86,208.859C142.902,205.329 145.705,203.713 148.769,202.107ZM207.255,382.205C214.843,381.96 220.819,375.651 220.652,368.06C220.485,360.47 214.238,354.43 206.646,354.518C201.666,354.577 197.1,357.305 194.69,361.665C192.28,366.024 192.396,371.342 194.996,375.591C197.595,379.84 202.276,382.365 207.255,382.205ZM149.755,381.513C156.966,379.501 161.209,372.055 159.264,364.826C157.319,357.597 149.913,353.285 142.666,355.164C135.324,357.067 130.944,364.592 132.914,371.915C134.885,379.239 142.45,383.55 149.755,381.513Z" style="fill:url(#_Linear1);fill-rule:nonzero;"/>
    </g>
    <defs>
        <linearGradient id="_Linear1" x1="0" y1="0" x2="1" y2="0" gradientUnits="userSpaceOnUse" gradientTransform="matrix(212.125,-275.879,275.879,212.125,168.068,473.106)"><stop offset="0" style="stop-color:rgb(255,154,1);stop-opacity:1"/><stop offset="1" style="stop-color:rgb(255,193,1);stop-opacity:1"/></linearGradient>
    </defs>
</svg>
