<?xml version="1.0" encoding="UTF-8" standalone="no"?>
<!DOCTYPE svg PUBLIC "-//W3C//DTD SVG 1.1//EN" "http://www.w3.org/Graphics/SVG/1.1/DTD/svg11.dtd">
<svg width="100%" height="100%" viewBox="0 0 400 400" version="1.1" xmlns="http://www.w3.org/2000/svg" xmlns:xlink="http://www.w3.org/1999/xlink" xml:space="preserve" xmlns:serif="http://www.serif.com/" style="fill-rule:evenodd;clip-rule:evenodd;stroke-linejoin:round;stroke-miterlimit:2;">
    <g transform="matrix(1,0,0,1,-538,-97)">
        <path d="M577.562,220.231C600.021,219.381 622.824,220.171 645.328,220.18L779.124,220.199L860.503,220.181C872.82,220.157 889.004,219.153 900.86,220.358C906.31,220.912 911.375,223.333 915.712,226.593C922.492,231.668 926.949,239.254 928.081,247.647C928.943,253.815 928.457,260.304 928.448,266.526L928.439,298.303L928.482,327.663C928.503,333.841 928.973,340.413 928.039,346.523C927.206,351.968 925.154,357.091 921.769,361.46C916.032,368.864 907.762,372.816 898.615,373.955C873.618,374.458 848.541,374.089 823.537,374.091L685.111,374.088L612.979,374.099C601.011,374.121 587.202,375.143 575.498,373.788C570.193,373.173 563.752,369.753 559.687,366.388C552.692,360.596 548.873,352.749 548.099,343.77C547.573,337.682 547.904,331.391 547.908,325.278L547.917,292.769L547.883,264.495C547.875,258.235 547.43,251.63 548.529,245.46C549.474,240.03 551.877,234.958 555.481,230.788C561.157,224.162 569.006,220.879 577.562,220.231ZM885.639,345.134C889.877,345.126 893.549,345.172 896.825,342.018C901.227,337.779 900.666,330.857 900.591,325.263C900.4,311.152 900.382,297.039 900.537,282.928C900.565,275.664 901.185,267.737 900.357,260.541C900.031,257.708 899.27,254.119 897.157,252.03C895.109,250.005 892.198,249.105 889.397,248.818C878.363,247.689 864.751,248.582 853.394,248.584L781.582,248.578L655.531,248.589C633.972,248.598 612.283,248.073 590.738,248.709C586.289,249.027 582.26,249.276 579.158,252.932C577.391,255.016 576.908,257.745 576.621,260.396C576.044,265.732 576.309,271.304 576.298,276.68L576.324,304.391C576.349,313.027 575.528,325.451 576.408,333.624C576.744,336.742 577.948,341.538 580.887,343.299C583.451,344.835 588.011,345.19 590.996,345.305C600.452,345.669 610.032,345.222 619.499,345.218C642.408,345.322 665.317,345.289 688.226,345.121L885.639,345.134Z" style="fill:url(#_Linear1);fill-rule:nonzero;"/>
    </g>
    <g transform="matrix(1,0,0,1,-538,-97)">
        <path d="M675.846,269.581C684.63,268.624 694.253,269.416 703.101,269.452C710.033,269.48 717.52,268.868 724.392,269.407C725.233,269.473 726.25,269.682 726.964,270.16C728.288,271.044 728.696,272.11 729.082,273.592C730.556,279.262 730.873,305.471 728.078,310.052C725.672,313.995 718.881,311.342 714.76,312.308L714.5,313.375C714.435,316.508 714.933,321.193 713.013,323.802C708.411,326.456 701.043,325.695 695.818,325.52C693.806,325.453 689.801,325.399 688.454,323.711C686.237,320.931 687.094,315.462 687.281,312.097C682.961,311.996 677.9,312.832 673.947,310.776C670.995,307.417 671.743,281.277 672.185,275.849C672.451,272.581 673.444,271.68 675.846,269.581Z" style="fill:rgb(254,178,0);fill-rule:nonzero;"/>
    </g>
    <g transform="matrix(1,0,0,1,-538,-97)">
        <path d="M750.267,269.593C757.713,268.907 765.633,269.427 773.12,269.415C781.041,269.403 789.474,268.8 797.35,269.591C799.215,269.778 800.793,270.073 802.463,270.929C804.061,272.9 804.392,275.164 804.543,277.647C804.789,281.679 804.321,285.835 804.351,289.884C804.392,295.35 805.089,301.298 804.399,306.712C804.267,307.752 804.098,308.713 803.375,309.501C800.412,312.725 793.992,312.001 790.028,312.239L789.544,312.991C789.702,316.046 790.407,320.57 788.814,323.294C787.983,324.713 786.123,325.016 784.631,325.247C779.519,326.038 767.843,326.582 763.737,323.552C761.796,320.047 762.416,315.982 762.501,312.103C759.448,312.019 756.357,312.229 753.312,311.997C751.783,311.881 749.747,311.691 748.715,310.425C745.811,306.862 746.66,281.608 747.185,276.126C747.48,273.04 747.877,271.622 750.267,269.593Z" style="fill:rgb(254,178,0);fill-rule:nonzero;"/>
    </g>
    <g transform="matrix(1,0,0,1,-538,-97)">
        <path d="M825.993,269.618C830.711,268.948 873.228,268.821 876.627,269.947C877.795,270.334 878.621,271.833 879.044,272.922C881.006,277.973 881.046,304.7 878.811,309.499C876.443,314.584 869.167,310.713 865.076,312.312L864.985,313.875C865.055,316.697 865.556,320.889 863.796,323.275C862.971,324.392 861.227,324.835 859.933,325.102C854.416,326.237 843.936,326.577 839.108,323.454C837.18,320.907 838.197,315.238 838.365,312.097C834.092,311.981 828.364,312.938 824.657,310.595C821.408,305.851 822.009,282.029 822.762,275.526C823.095,272.653 823.713,271.395 825.993,269.618Z" style="fill:rgb(254,178,0);fill-rule:nonzero;"/>
    </g>
    <g transform="matrix(1,0,0,1,-538,-97)">
        <path d="M600.827,269.633C607.29,268.746 614.595,269.433 621.146,269.431C629.573,269.429 638.359,268.916 646.752,269.526C648.719,269.669 650.493,269.98 652.335,270.705C652.863,271.287 653.285,271.825 653.555,272.576C654.705,275.768 654.581,308.173 653.264,310.07C650.9,313.472 642.962,311.694 639.316,312.196L638.984,312.954C639.054,316.018 639.654,320.455 638.111,323.185C637.45,324.356 635.857,324.767 634.633,325.047C629.532,326.217 617.934,326.595 613.343,323.812C611.242,320.823 611.929,315.652 611.933,312.088C607.989,312.107 602.452,312.827 598.989,310.882C595.989,306.421 596.113,279.949 597.404,274.063C597.902,271.791 598.91,270.85 600.827,269.633Z" style="fill:rgb(254,178,0);fill-rule:nonzero;"/>
    </g>
    <defs>
        <linearGradient id="_Linear1" x1="0" y1="0" x2="1" y2="0" gradientUnits="userSpaceOnUse" gradientTransform="matrix(354.017,-158.12,158.12,354.017,560.896,375.656)"><stop offset="0" style="stop-color:rgb(255,170,1);stop-opacity:1"/><stop offset="1" style="stop-color:rgb(255,201,1);stop-opacity:1"/></linearGradient>
    </defs>
</svg>
